<svg xmlns="http://www.w3.org/2000/svg" width="333" height="90">
<style type="text/css">path{stroke-width:2;stroke:black;fill:rgba(0,0,0,0);}text{font:bold 14px monospace;text-anchor:middle;}text.label{text-anchor:start;}text.comment{font:italic 12px monospace;}rect{stroke-width:2;stroke:black;fill:#EEF;}</style>
<path d="M 20 35 v 20 m 10 -20 v 20 m -10 -10 h 20.5"></path><g><path d="M40 45h0"></path><path d="M292 45h0"></path><path d="M40 45h10"></path><g><path d="M50 45h0"></path><path d="M102 45h0"></path><rect x="50" y="34" width="52" height="22"></rect><text x="76" y="49">atom</text></g><path d="M102 45h10"></path><g><path d="M112 45h0"></path><path d="M292 45h0"></path><path d="M112 45a10 10 0 0 0 10 -10v-5a10 10 0 0 1 10 -10"></path><g><path d="M132 20h140"></path></g><path d="M272 20a10 10 0 0 1 10 10v5a10 10 0 0 0 10 10"></path><path d="M112 45h20"></path><g><path d="M132 45h0"></path><path d="M272 45h0"></path><path d="M132 45h10"></path><g><path d="M142 45h0"></path><path d="M262 45h0"></path><path d="M142 45h10"></path><g><path d="M152 45h0"></path><path d="M180 45h0"></path><rect x="152" y="34" width="28" height="22" rx="10" ry="10"></rect><text x="166" y="49">|</text></g><path d="M180 45h10"></path><path d="M190 45h10"></path><g><path d="M200 45h0"></path><path d="M252 45h0"></path><rect x="200" y="34" width="52" height="22"></rect><text x="226" y="49">atom</text></g><path d="M252 45h10"></path></g><path d="M262 45h10"></path><path d="M142 45a10 10 0 0 0 -10 10v5a10 10 0 0 0 10 10"></path><g><path d="M142 70h120"></path></g><path d="M262 70a10 10 0 0 0 10 -10v-5a10 10 0 0 0 -10 -10"></path></g><path d="M272 45h20"></path></g></g><path d="M 292 45 h 20 m -10 -10 v 20 m 10 -20 v 20"></path>
</svg>
