<svg xmlns="http://www.w3.org/2000/svg" width="349" height="98">
<style type="text/css">path{stroke-width:2;stroke:black;fill:rgba(0,0,0,0);}text{font:bold 14px monospace;text-anchor:middle;}text.label{text-anchor:start;}text.comment{font:italic 12px monospace;}rect{stroke-width:2;stroke:black;fill:#EEF;}</style>
<path d="M 20 21 v 20 m 10 -20 v 20 m -10 -10 h 20.5"></path><g><path d="M40 31h0"></path><path d="M308 31h0"></path><g><path d="M40 31h0"></path><path d="M108 31h0"></path><path d="M40 31h20"></path><g><path d="M60 31h0"></path><path d="M88 31h0"></path><rect x="60" y="20" width="28" height="22" rx="10" ry="10"></rect><text x="74" y="35">&gt;</text></g><path d="M88 31h20"></path><path d="M40 31a10 10 0 0 1 10 10v16a10 10 0 0 0 10 10"></path><g><path d="M60 67h0"></path><path d="M88 67h0"></path><rect x="60" y="56" width="28" height="22" rx="10" ry="10"></rect><text x="74" y="71">&lt;</text></g><path d="M88 67a10 10 0 0 0 10 -10v-16a10 10 0 0 1 10 -10"></path></g><path d="M108 31h10"></path><g><path d="M118 31h0"></path><path d="M298 31h0"></path><rect x="118" y="20" width="180" height="22" rx="10" ry="10"></rect><text x="208" y="35">non-negative integer</text></g><path d="M298 31h10"></path></g><path d="M 308 31 h 20 m -10 -10 v 20 m 10 -20 v 20"></path>
</svg>
