<svg xmlns="http://www.w3.org/2000/svg" width="461" height="98">
<style type="text/css">path{stroke-width:2;stroke:black;fill:rgba(0,0,0,0);}text{font:bold 14px monospace;text-anchor:middle;}text.label{text-anchor:start;}text.comment{font:italic 12px monospace;}rect{stroke-width:2;stroke:black;fill:#EEF;}</style>
<path d="M 20 21 v 20 m 10 -20 v 20 m -10 -10 h 20.5"></path><g><path d="M40 31h0"></path><path d="M420 31h0"></path><g><path d="M40 31h0"></path><path d="M148 31h0"></path><path d="M40 31h20"></path><g><path d="M60 31h68"></path></g><path d="M128 31h20"></path><path d="M40 31a10 10 0 0 1 10 10v5a10 10 0 0 0 10 10"></path><g><path d="M60 56h0"></path><path d="M128 56h0"></path><rect x="60" y="45" width="68" height="22"></rect><text x="94" y="60">anchor</text></g><path d="M128 56a10 10 0 0 0 10 -10v-5a10 10 0 0 1 10 -10"></path></g><g><path d="M148 31h0"></path><path d="M280 31h0"></path><path d="M148 31h20"></path><g><path d="M168 31h0"></path><path d="M260 31h0"></path><rect x="168" y="20" width="92" height="22"></rect><text x="214" y="35">validator</text></g><path d="M260 31h20"></path><path d="M148 31a10 10 0 0 1 10 10v16a10 10 0 0 0 10 10"></path><g><path d="M168 67h16"></path><path d="M244 67h16"></path><rect x="184" y="56" width="60" height="22"></rect><text x="214" y="71">group</text></g><path d="M260 67a10 10 0 0 0 10 -10v-16a10 10 0 0 1 10 -10"></path></g><g><path d="M280 31h0"></path><path d="M420 31h0"></path><path d="M280 31h20"></path><g><path d="M300 31h100"></path></g><path d="M400 31h20"></path><path d="M280 31a10 10 0 0 1 10 10v5a10 10 0 0 0 10 10"></path><g><path d="M300 56h0"></path><path d="M400 56h0"></path><rect x="300" y="45" width="100" height="22"></rect><text x="350" y="60">quantifier</text></g><path d="M400 56a10 10 0 0 0 10 -10v-5a10 10 0 0 1 10 -10"></path></g></g><path d="M 420 31 h 20 m -10 -10 v 20 m 10 -20 v 20"></path>
</svg>
