<svg xmlns="http://www.w3.org/2000/svg" width="249" height="90">
<style type="text/css">path{stroke-width:2;stroke:black;fill:rgba(0,0,0,0);}text{font:bold 14px monospace;text-anchor:middle;}text.label{text-anchor:start;}text.comment{font:italic 12px monospace;}rect{stroke-width:2;stroke:black;fill:#EEF;}</style>
<path d="M 20 35 v 20 m 10 -20 v 20 m -10 -10 h 20.5"></path><g><path d="M40 45h0"></path><path d="M208 45h0"></path><path d="M40 45a10 10 0 0 0 10 -10v-5a10 10 0 0 1 10 -10"></path><g><path d="M60 20h128"></path></g><path d="M188 20a10 10 0 0 1 10 10v5a10 10 0 0 0 10 10"></path><path d="M40 45h20"></path><g><path d="M60 45h0"></path><path d="M188 45h0"></path><path d="M60 45h10"></path><g><path d="M70 45h0"></path><path d="M178 45h0"></path><rect x="70" y="34" width="108" height="22"></rect><text x="124" y="49">alternation</text></g><path d="M178 45h10"></path><path d="M70 45a10 10 0 0 0 -10 10v5a10 10 0 0 0 10 10"></path><g><path d="M70 70h108"></path></g><path d="M178 70a10 10 0 0 0 10 -10v-5a10 10 0 0 0 -10 -10"></path></g><path d="M188 45h20"></path></g><path d="M 208 45 h 20 m -10 -10 v 20 m 10 -20 v 20"></path>
</svg>
