<svg xmlns="http://www.w3.org/2000/svg" width="297" height="62">
<style type="text/css">path{stroke-width:2;stroke:black;fill:rgba(0,0,0,0);}text{font:bold 14px monospace;text-anchor:middle;}text.label{text-anchor:start;}text.comment{font:italic 12px monospace;}rect{stroke-width:2;stroke:black;fill:#EEF;}</style>
<path d="M 20 21 v 20 m 10 -20 v 20 m -10 -10 h 20.5"></path><g><path d="M40 31h0"></path><path d="M256 31h0"></path><path d="M40 31h10"></path><g><path d="M50 31h0"></path><path d="M78 31h0"></path><rect x="50" y="20" width="28" height="22" rx="10" ry="10"></rect><text x="64" y="35">(</text></g><path d="M78 31h10"></path><path d="M88 31h10"></path><g><path d="M98 31h0"></path><path d="M198 31h0"></path><rect x="98" y="20" width="100" height="22"></rect><text x="148" y="35">expression</text></g><path d="M198 31h10"></path><path d="M208 31h10"></path><g><path d="M218 31h0"></path><path d="M246 31h0"></path><rect x="218" y="20" width="28" height="22" rx="10" ry="10"></rect><text x="232" y="35">)</text></g><path d="M246 31h10"></path></g><path d="M 256 31 h 20 m -10 -10 v 20 m 10 -20 v 20"></path>
</svg>
