<svg xmlns="http://www.w3.org/2000/svg" width="673" height="184">
<style type="text/css">path{stroke-width:2;stroke:black;fill:rgba(0,0,0,0);}text{font:bold 14px monospace;text-anchor:middle;}text.label{text-anchor:start;}text.comment{font:italic 12px monospace;}rect{stroke-width:2;stroke:black;fill:#EEF;}</style>
<path d="M 20 57 v 20 m 10 -20 v 20 m -10 -10 h 20.5"></path><g><path d="M40 67h0"></path><path d="M632 67h0"></path><path d="M40 67a10 10 0 0 0 10 -10v-16a10 10 0 0 1 10 -10"></path><g><path d="M60 31h262"></path><path d="M350 31h262"></path><rect x="322" y="20" width="28" height="22" rx="10" ry="10"></rect><text x="336" y="35">*</text></g><path d="M612 31a10 10 0 0 1 10 10v16a10 10 0 0 0 10 10"></path><path d="M40 67h20"></path><g><path d="M60 67h262"></path><path d="M350 67h262"></path><rect x="322" y="56" width="28" height="22" rx="10" ry="10"></rect><text x="336" y="71">+</text></g><path d="M612 67h20"></path><path d="M40 67a10 10 0 0 1 10 10v16a10 10 0 0 0 10 10"></path><g><path d="M60 103h262"></path><path d="M350 103h262"></path><rect x="322" y="92" width="28" height="22" rx="10" ry="10"></rect><text x="336" y="107">?</text></g><path d="M612 103a10 10 0 0 0 10 -10v-16a10 10 0 0 1 10 -10"></path><path d="M40 67a10 10 0 0 1 10 10v66a10 10 0 0 0 10 10"></path><g><path d="M60 153h0"></path><path d="M612 153h0"></path><path d="M60 153h10"></path><g><path d="M70 153h0"></path><path d="M98 153h0"></path><rect x="70" y="142" width="28" height="22" rx="10" ry="10"></rect><text x="84" y="157">{</text></g><path d="M98 153h10"></path><path d="M108 153h10"></path><g><path d="M118 153h0"></path><path d="M298 153h0"></path><rect x="118" y="142" width="180" height="22" rx="10" ry="10"></rect><text x="208" y="157">non-negative integer</text></g><path d="M298 153h10"></path><g><path d="M308 153h0"></path><path d="M564 153h0"></path><path d="M308 153a10 10 0 0 0 10 -10v-5a10 10 0 0 1 10 -10"></path><g><path d="M328 128h216"></path></g><path d="M544 128a10 10 0 0 1 10 10v5a10 10 0 0 0 10 10"></path><path d="M308 153h20"></path><g><path d="M328 153h0"></path><path d="M544 153h0"></path><path d="M328 153h10"></path><g><path d="M338 153h0"></path><path d="M366 153h0"></path><rect x="338" y="142" width="28" height="22" rx="10" ry="10"></rect><text x="352" y="157">,</text></g><path d="M366 153h10"></path><path d="M376 153h10"></path><g><path d="M386 153h0"></path><path d="M534 153h0"></path><rect x="386" y="142" width="148" height="22" rx="10" ry="10"></rect><text x="460" y="157">positive integer</text></g><path d="M534 153h10"></path></g><path d="M544 153h20"></path></g><path d="M564 153h10"></path><g><path d="M574 153h0"></path><path d="M602 153h0"></path><rect x="574" y="142" width="28" height="22" rx="10" ry="10"></rect><text x="588" y="157">}</text></g><path d="M602 153h10"></path></g><path d="M612 153a10 10 0 0 0 10 -10v-66a10 10 0 0 1 10 -10"></path></g><path d="M 632 67 h 20 m -10 -10 v 20 m 10 -20 v 20"></path>
</svg>
