<svg xmlns="http://www.w3.org/2000/svg" width="229" height="170">
<style type="text/css">path{stroke-width:2;stroke:black;fill:rgba(0,0,0,0);}text{font:bold 14px monospace;text-anchor:middle;}text.label{text-anchor:start;}text.comment{font:italic 12px monospace;}rect{stroke-width:2;stroke:black;fill:#EEF;}</style>
<path d="M 20 57 v 20 m 10 -20 v 20 m -10 -10 h 20.5"></path><g><path d="M40 67h0"></path><path d="M188 67h0"></path><path d="M40 67a10 10 0 0 0 10 -10v-16a10 10 0 0 1 10 -10"></path><g><path d="M60 31h28"></path><path d="M140 31h28"></path><rect x="88" y="20" width="52" height="22" rx="10" ry="10"></rect><text x="114" y="35">list</text></g><path d="M168 31a10 10 0 0 1 10 10v16a10 10 0 0 0 10 10"></path><path d="M40 67h20"></path><g><path d="M60 67h36"></path><path d="M132 67h36"></path><rect x="96" y="56" width="36" height="22" rx="10" ry="10"></rect><text x="114" y="71">of</text></g><path d="M168 67h20"></path><path d="M40 67a10 10 0 0 1 10 10v16a10 10 0 0 0 10 10"></path><g><path d="M60 103h8"></path><path d="M160 103h8"></path><rect x="68" y="92" width="92" height="22" rx="10" ry="10"></rect><text x="114" y="107">validator</text></g><path d="M168 103a10 10 0 0 0 10 -10v-16a10 10 0 0 1 10 -10"></path><path d="M40 67a10 10 0 0 1 10 10v52a10 10 0 0 0 10 10"></path><g><path d="M60 139h0"></path><path d="M168 139h0"></path><rect x="60" y="128" width="108" height="22" rx="10" ry="10"></rect><text x="114" y="143">identifiers</text></g><path d="M168 139a10 10 0 0 0 10 -10v-52a10 10 0 0 1 10 -10"></path></g><path d="M 188 67 h 20 m -10 -10 v 20 m 10 -20 v 20"></path>
</svg>
